<svg id="Capa_1" data-name="Capa 1" xmlns="http://www.w3.org/2000/svg" viewBox="0 0 86.22 74.56"><defs><style>.cls-1{fill:#dfb3d4;}.cls-1,.cls-2,.cls-3,.cls-4{stroke:#b56eaa;stroke-miterlimit:10;}.cls-2{fill:#b978b1;}.cls-3{fill:#b15fa2;}.cls-4{fill:#74216b;}</style></defs><path class="cls-1" d="M57.94,55S69.62,44.51,63.17,30.6s-6.39-9.22-9.26-16.8-8.53,9.72-8.53,9.72S35.1,35.42,43.15,52s5.93,8.74,5.93,8.74Z" transform="translate(-7.7 -11.38)"/><path class="cls-2" d="M51,52S49.61,37.87,32.78,31.65,20.18,28.74,11.45,25s2.88,11.85,2.88,11.85S18,51.21,38.23,58.4s11.85,2.83,11.85,2.83Z" transform="translate(-7.7 -11.38)"/><path class="cls-3" d="M49.09,51.21s2-14.1,19.23-19.65,12.86-2.4,21.84-5.81-3.4,11.71-3.4,11.71-4.26,14.24-25,20.61-12.09,2.37-12.09,2.37Z" transform="translate(-7.7 -11.38)"/><path class="cls-4" d="M43.56,51.9s-8.39,8.61-2.38,19.27,5.65,7,8.42,12.83,6-7.92,6-7.92,7.19-9.69-.26-22.36-5.24-6.63-5.24-6.63Z" transform="translate(-7.7 -11.38)"/></svg>